<!--?xml version="1.0" standalone="no"?-->
              <svg id="sw-js-blob-svg" viewBox="0 0 100 100" xmlns="http://www.w3.org/2000/svg" version="1.1">
                    <defs> 
                        <linearGradient id="sw-gradient" x1="0" x2="1" y1="1" y2="0">
                            <stop id="stop1" stop-color="rgba(101, 157, 172, 1)" offset="0%"></stop>
                            <stop id="stop2" stop-color="rgba(101, 157, 172, 1)" offset="100%"></stop>
                        </linearGradient>
                    </defs>
                <path fill="url(#sw-gradient)" d="M19.9,-34.5C26.5,-30.7,33,-26.8,37.1,-21C41.1,-15.2,42.7,-7.6,42.9,0.1C43.2,7.9,42.1,15.8,38.3,22C34.5,28.1,28,32.7,21.1,35.8C14.3,39,7.2,40.9,-0.3,41.4C-7.7,41.9,-15.4,41,-21.2,37.2C-27,33.4,-30.8,26.7,-34.6,20C-38.4,13.3,-42.1,6.7,-43,-0.5C-44,-7.7,-42,-15.4,-37.9,-21.6C-33.9,-27.8,-27.6,-32.5,-21,-36.1C-14.3,-39.8,-7.1,-42.5,-0.2,-42.1C6.7,-41.7,13.4,-38.2,19.9,-34.5Z" width="100%" height="100%" transform="translate(50 50)" stroke-width="0" style="transition: 0.3s;" stroke="url(#sw-gradient)"></path>
              </svg>